<?xml version="1.0" encoding="UTF-8" standalone="no"?>
<svg
   xmlns:dc="http://purl.org/dc/elements/1.1/"
   xmlns:cc="http://creativecommons.org/ns#"
   xmlns:rdf="http://www.w3.org/1999/02/22-rdf-syntax-ns#"
   xmlns:svg="http://www.w3.org/2000/svg"
   xmlns="http://www.w3.org/2000/svg"
   xmlns:sodipodi="http://sodipodi.sourceforge.net/DTD/sodipodi-0.dtd"
   xmlns:inkscape="http://www.inkscape.org/namespaces/inkscape"
   version="1.1"
   id="svg2"
   xml:space="preserve"
   width="3333.3333"
   height="2666.6667"
   viewBox="0 0 3333.3333 2666.6667"
   sodipodi:docname="AI-TEXT.ai"><metadata
     id="metadata8"><rdf:RDF><cc:Work
         rdf:about=""><dc:format>image/svg+xml</dc:format><dc:type
           rdf:resource="http://purl.org/dc/dcmitype/StillImage" /></cc:Work></rdf:RDF></metadata><defs
     id="defs6"><clipPath
       clipPathUnits="userSpaceOnUse"
       id="clipPath18"><path
         d="M 0,2000 H 2500 V 0 H 0 Z"
         id="path16" /></clipPath></defs><sodipodi:namedview
     pagecolor="#ffffff"
     bordercolor="#666666"
     borderopacity="1"
     objecttolerance="10"
     gridtolerance="10"
     guidetolerance="10"
     inkscape:pageopacity="0"
     inkscape:pageshadow="2"
     inkscape:window-width="640"
     inkscape:window-height="480"
     id="namedview4" /><g
     id="g10"
     inkscape:groupmode="layer"
     inkscape:label="AI-TEXT"
     transform="matrix(1.3333333,0,0,-1.3333333,0,2666.6667)"><g
       id="g12"><g
         id="g14"
         clip-path="url(#clipPath18)"><g
           id="g20"
           transform="translate(469.2547,756.3086)"><path
             d="m 0,0 c -0.047,-0.059 -0.07,-0.106 -0.129,-0.129 -22.564,-18.897 -50.98,-30.92 -85.225,-36.102 -12.986,-1.975 -26.807,-2.962 -41.473,-2.962 -25.396,0 -49.852,3.338 -73.356,10.013 -23.48,6.675 -45.092,16.182 -64.765,28.569 -0.952,0.588 -1.892,1.187 -2.809,1.786 -0.023,0.036 -0.058,0.059 -0.082,0.059 -2.597,1.681 -5.147,3.408 -7.639,5.194 0,0 -0.035,0.036 -0.058,0.036 -10.612,8.849 -17.358,22.187 -17.358,37.101 0,22.105 14.807,40.744 34.974,46.396 4.089,1.164 8.414,1.775 12.88,1.775 7.956,0 15.465,-1.963 22.082,-5.43 2.997,-2.232 6.076,-4.336 9.202,-6.31 6.04,-3.832 12.316,-7.193 18.826,-10.107 20.613,-9.225 43.964,-13.82 70.018,-13.82 23.481,0 41.262,3.49 53.343,10.482 3.419,1.998 6.381,4.231 8.825,6.723 0.024,0.023 0.083,0.082 0.106,0.105 0.024,-0.047 0.059,-0.105 0.059,-0.152 C -49.922,42.707 -27.864,17.099 0,0"
             style="fill:#fbbc05;fill-opacity:1;fill-rule:nonzero;stroke:none"
             id="path22" /></g><g
           id="g24"
           transform="translate(264.818,1149.7686)"><path
             d="m 0,0 c 0,-23.375 -18.963,-42.311 -42.338,-42.311 -11.083,0 -21.169,4.254 -28.706,11.241 -8.379,7.695 -13.631,18.778 -13.631,31.07 0,23.401 18.962,42.338 42.337,42.338 13.605,0 25.739,-6.435 33.487,-16.415 C -3.309,18.779 0,9.77 0,0"
             style="fill:#4285f4;fill-opacity:1;fill-rule:nonzero;stroke:none"
             id="path26" /></g><g
           id="g28"
           transform="translate(515.1578,834.5062)"><path
             d="m 0,0 c -4.818,-25.408 -16.558,-47.878 -33.094,-66.07 -0.235,0.188 -0.481,0.377 -0.716,0.553 -14.185,11.117 -26.948,24.009 -37.877,38.323 -6.44,8.379 -12.21,17.252 -17.334,26.548 -0.27,0.505 -0.552,1.14 -0.846,1.668 -2.21,4.149 -4.278,8.485 -6.229,13.186 h -0.023 c -0.024,0 -1.775,4.16 -1.775,4.196 -0.317,0.834 -1.481,4.03 -1.504,4.03 -0.576,1.176 -1.128,2.715 -1.681,4.255 -0.164,0.446 -0.317,0.752 -0.446,1.198 -0.106,0.271 -0.212,0.482 -0.294,0.776 -0.552,2.515 -1.316,4.842 -2.339,7.075 0,0.058 -0.023,0.094 -0.047,0.141 -2.808,6.275 -7.439,11.528 -13.843,15.806 -9.32,6.229 -20.884,11.705 -34.61,16.465 -1.14,0.364 -2.268,0.752 -3.396,1.128 -2.127,0.681 -4.278,1.363 -6.487,2.021 -1.998,0.576 -3.996,1.175 -5.982,1.786 l -0.035,0.024 c -16.359,4.83 -33.482,9.825 -51.368,14.948 -2.28,0.647 -4.548,1.305 -6.781,2.022 -5.171,1.645 -10.26,3.431 -15.278,5.406 -1.68,0.599 -3.337,1.257 -4.994,1.974 -0.318,0.106 -0.635,0.235 -0.94,0.364 -1.716,0.705 -3.42,1.422 -5.101,2.174 -0.893,0.341 -1.763,0.741 -2.62,1.129 -1.74,0.763 -3.444,1.551 -5.148,2.397 -0.317,0.129 -0.634,0.259 -0.952,0.447 -1.445,0.658 -2.855,1.339 -4.254,2.068 -1.105,0.529 -2.209,1.081 -3.279,1.657 -1.974,0.999 -3.913,2.021 -5.864,3.079 -1.234,0.67 -2.456,1.351 -3.655,2.068 -16.441,9.613 -29.979,22.423 -40.626,38.406 -11.447,17.146 -17.146,39.369 -17.146,66.68 0,19.144 2.914,36.561 8.825,52.156 9.696,-7.533 21.824,-12.023 35.056,-12.023 31.601,0 57.232,25.608 57.232,57.197 0,11.74 -3.513,22.646 -9.589,31.73 22.282,7.956 47.995,11.929 77.093,11.929 36.819,0 69.36,-6.523 97.623,-19.52 19.72,-9.108 37.219,-21.354 52.473,-36.819 -20.378,-10.083 -38.817,-23.457 -54.659,-39.452 -0.811,-0.787 -1.598,-1.598 -2.362,-2.444 -0.681,-0.682 -1.339,-1.363 -1.962,-2.045 -2.786,-2.973 -5.465,-6.017 -8.039,-9.143 -2.632,-3.149 -5.147,-6.381 -7.568,-9.683 -0.023,-0.036 -0.047,-0.083 -0.082,-0.106 -6.111,4.489 -12.528,8.344 -19.226,11.575 -17.147,8.25 -36.843,12.375 -59.066,12.375 -20.954,0 -37.159,-3.185 -48.582,-9.507 -11.423,-6.358 -17.123,-15.571 -17.123,-27.629 0,-12.716 5.723,-22.564 17.146,-29.544 1.422,-0.87 2.915,-1.74 4.442,-2.586 0.13,-0.07 0.259,-0.129 0.388,-0.2 10.318,-5.394 22.905,-9.836 37.665,-13.984 0.741,-0.212 1.446,-0.294 2.174,-0.294 h 0.036 c 7.474,-2.503 15.113,-4.866 22.904,-7.192 10.471,-3.138 21.224,-6.229 32.271,-9.555 4.149,-1.234 8.25,-1.798 12.316,-4.372 0.059,0 0.106,-0.035 0.165,-0.035 h 0.023 c 15.572,-5.876 30.52,-12.316 44.881,-20.613 18.18,-10.541 33.023,-24.479 44.493,-42.025 l 1.504,-2.409 c 0.247,-0.399 0.494,-0.799 0.729,-1.199 0.141,-0.235 0.27,-0.458 0.387,-0.681 1.469,-2.68 2.856,-5.406 4.161,-8.168 0.047,-0.094 0.082,-0.188 0.129,-0.282 0.341,-0.764 0.67,-1.528 0.999,-2.315 0,0 0.023,-0.023 0.023,-0.047 0.741,-1.763 1.422,-3.608 2.081,-5.465 0.046,-0.129 0.105,-0.293 0.129,-0.423 0.599,-2.233 1.281,-4.442 2.068,-6.593 0.035,-0.082 0.059,-0.188 0.082,-0.258 0.4,-1.128 0.788,-2.233 1.211,-3.338 0.023,-0.058 0.023,-0.082 0.047,-0.129 0.106,-0.294 0.247,-0.552 0.341,-0.846 0.317,-0.787 0.658,-1.551 0.975,-2.315 0.082,-0.188 0.153,-0.376 0.247,-0.553 C 2.856,41.614 3.96,20.871 0,0"
             style="fill:#fbbc05;fill-opacity:1;fill-rule:nonzero;stroke:none"
             id="path30" /></g><g
           id="g32"
           transform="translate(822.93,1355.0006)"><path
             d="m 0,0 v -622.631 h -94.016 v 27.042 c -34.08,-22.247 -73.943,-35.221 -117.143,-35.221 -0.87,0 -1.845,0 -2.703,0.023 -20.625,0.235 -40.591,3.409 -59.371,9.19 -5.571,1.681 -11.094,3.597 -16.453,5.747 -18.486,7.357 -35.679,17.287 -51.18,29.286 16.535,18.192 28.276,40.662 33.094,66.07 3.96,20.871 2.856,41.613 -2.503,61.098 0.317,-0.752 0.658,-1.481 1.01,-2.221 0.694,-1.481 1.399,-2.95 2.163,-4.36 0.282,-0.529 0.552,-1.058 0.834,-1.551 0.787,-1.469 1.634,-2.95 2.503,-4.36 0.858,-1.446 1.775,-2.844 2.703,-4.231 0.6,-0.87 1.211,-1.739 1.81,-2.574 0.705,-1.022 1.469,-2.021 2.256,-3.02 0.259,-0.364 0.553,-0.705 0.847,-1.046 0.364,-0.505 0.787,-0.999 1.175,-1.504 0.294,-0.364 0.576,-0.705 0.893,-1.046 0.611,-0.682 1.21,-1.399 1.81,-2.08 1.716,-1.939 3.502,-3.808 5.359,-5.594 0.611,-0.576 1.187,-1.128 1.786,-1.681 0.552,-0.552 1.128,-1.046 1.739,-1.574 0.682,-0.635 1.387,-1.234 2.104,-1.81 0.94,-0.811 1.939,-1.61 2.938,-2.398 0.893,-0.705 1.81,-1.386 2.762,-2.068 0.987,-0.74 2.044,-1.469 3.09,-2.186 0.083,-0.047 0.188,-0.129 0.294,-0.176 1.046,-0.717 2.127,-1.399 3.197,-2.057 0.975,-0.622 1.974,-1.234 2.996,-1.809 1.187,-0.682 2.362,-1.34 3.596,-1.963 1.058,-0.552 2.104,-1.081 3.185,-1.61 3.361,-1.622 6.828,-3.067 10.377,-4.325 0.893,-0.317 1.751,-0.634 2.644,-0.893 1.082,-0.376 2.163,-0.693 3.256,-0.999 1.034,-0.317 2.08,-0.587 3.126,-0.869 0.058,-0.024 0.106,-0.024 0.164,-0.024 1.728,-0.482 3.491,-0.87 5.277,-1.21 1.633,-0.341 3.279,-0.635 4.959,-0.894 1.187,-0.188 2.398,-0.34 3.573,-0.47 1.445,-0.188 2.891,-0.317 4.36,-0.423 1.339,-0.106 2.679,-0.188 4.019,-0.235 1.363,-0.059 2.703,-0.082 4.078,-0.082 1.34,0 2.703,0.023 4.043,0.082 2.679,0.106 5.335,0.282 7.932,0.6 0.658,0.058 1.316,0.164 1.963,0.235 3.29,0.423 6.487,0.999 9.648,1.739 0.94,0.211 1.892,0.423 2.832,0.682 0.835,0.211 1.681,0.446 2.527,0.681 0.834,0.212 1.645,0.47 2.491,0.74 1.152,0.365 2.304,0.729 3.467,1.152 1.152,0.388 2.28,0.811 3.408,1.258 1.187,0.47 2.374,0.952 3.549,1.445 1.082,0.47 2.21,0.976 3.279,1.493 1.058,0.481 2.08,0.999 3.079,1.504 0.658,0.341 1.316,0.682 1.974,1.046 0.811,0.423 1.622,0.893 2.41,1.34 0.681,0.399 1.339,0.787 1.997,1.187 0.236,0.129 0.471,0.282 0.706,0.446 1.081,0.623 2.127,1.316 3.184,2.021 2.104,1.387 4.149,2.856 6.111,4.384 0.894,0.705 1.763,1.398 2.633,2.104 0.599,0.493 1.187,0.975 1.763,1.492 0.47,0.423 0.94,0.823 1.386,1.234 1.892,1.657 3.702,3.396 5.442,5.206 0.705,0.729 1.41,1.469 2.103,2.233 0.364,0.388 0.729,0.787 1.093,1.21 0.635,0.682 1.234,1.387 1.845,2.128 0.811,0.94 1.598,1.915 2.386,2.914 0.764,0.999 1.551,1.998 2.291,3.02 0.659,0.893 1.281,1.787 1.916,2.703 0.552,0.811 1.128,1.622 1.657,2.468 0.47,0.705 0.999,1.422 1.41,2.151 1.34,2.186 2.703,4.418 3.89,6.698 0.212,0.447 4.666,10.953 4.983,11.764 0.447,1.21 0.823,2.444 1.21,3.678 0.4,1.234 0.764,2.468 1.105,3.738 0.27,0.834 0.458,1.68 0.67,2.514 0.27,0.952 0.47,1.893 0.682,2.833 0.023,0.082 0.047,0.164 0.047,0.246 0.188,0.682 0.34,1.364 0.446,2.045 0.212,0.87 0.364,1.728 0.494,2.598 0.317,1.739 0.576,3.466 0.822,5.253 0.2,1.598 0.388,3.231 0.494,4.865 0.023,0.2 0.023,0.411 0.023,0.599 0.106,1.105 0.165,2.174 0.212,3.279 0.023,0.27 0.023,0.552 0.023,0.823 0.059,1.281 0.083,2.573 0.083,3.878 0,3.525 -0.188,7.016 -0.529,10.436 -5.218,53.495 -50.322,95.285 -105.18,95.285 -8.755,0 -17.264,-1.058 -25.396,-3.079 -23.986,-5.912 -44.728,-19.979 -59.148,-39.135 -0.035,-0.07 -0.106,-0.152 -0.188,-0.258 -0.446,-0.576 -0.869,-1.152 -1.257,-1.739 -5.124,-6.875 -9.378,-14.385 -12.634,-22.423 -0.47,-1.058 -0.893,-2.127 -1.234,-3.185 -0.423,-1.046 -0.822,-2.127 -1.128,-3.196 -0.399,-1.082 -0.764,-2.186 -1.057,-3.291 -0.682,-2.174 -1.258,-4.383 -1.763,-6.64 -0.412,-1.81 -0.788,-3.619 -1.07,-5.488 -12.21,13.785 -28.005,26.924 -46.537,37.947 -14.314,8.508 -28.899,15.031 -43.048,19.391 6.617,16.652 14.631,32.459 24.785,46.514 18.603,25.843 42.942,47.302 71.099,62.532 15.184,8.215 31.472,14.655 48.618,18.956 16.594,4.231 34.01,6.44 51.92,6.44 26.948,0 52.743,-5.041 76.459,-14.267 1.81,-0.705 3.619,-1.41 5.441,-2.174 9.742,-4.101 19.355,-8.908 28.287,-14.372 2.362,-1.411 4.877,-2.88 7.227,-4.407 V -94.11 C -76.388,-47.466 -43.283,-12.269 0,0"
             style="fill:#4285f4;fill-opacity:1;fill-rule:nonzero;stroke:none"
             id="path34" /></g></g></g><text
       transform="matrix(1,0,0,-1,960.6396,765.4365)"
       style="font-variant:normal;font-weight:300;font-stretch:normal;font-size:104.158px;font-family:Cocogoose;-inkscape-font-specification:Cocogoose-Light;writing-mode:lr-tb;fill:#4285f4;fill-opacity:1;fill-rule:nonzero;stroke:none"
       id="text38"><tspan
         x="0 73.848091 105.30384 163.94485 202.27502 285.70566 402.6752 439.85965 510.99963 594.4303 625.88605 709.83746 776.39447 860.34589 933.36072 1017.3121 1090.327 1127.5115 1212.5044 1295.9351 1354.576"
         y="0"
         sodipodi:role="line"
         id="tspan36">Sistem Pelayanan Desa</tspan></text><text
       transform="matrix(1,0,0,-1,941.7686,897.3408)"
       style="font-variant:normal;font-weight:normal;font-stretch:normal;font-size:368.157px;font-family:Cocogoose;-inkscape-font-specification:Cocogoose;writing-mode:lr-tb;fill:#fbbc05;fill-opacity:1;fill-rule:nonzero;stroke:none"
       id="text42"><tspan
         x="0"
         y="0"
         id="tspan40">S</tspan></text><text
       transform="matrix(1,0,0,-1,1183.2759,897.3408)"
       style="font-variant:normal;font-weight:normal;font-stretch:normal;font-size:305.859px;font-family:Cocogoose;-inkscape-font-specification:Cocogoose;writing-mode:lr-tb;fill:#fbbc05;fill-opacity:1;fill-rule:nonzero;stroke:none"
       id="text46"><tspan
         x="0 95.122246 331.55148"
         y="0"
         sodipodi:role="line"
         id="tspan44">ian</tspan></text><text
       transform="matrix(1,0,0,-1,1736.1104,897.3408)"
       style="font-variant:normal;font-weight:normal;font-stretch:normal;font-size:368.157px;font-family:Cocogoose;-inkscape-font-specification:Cocogoose;writing-mode:lr-tb;fill:#4285f4;fill-opacity:1;fill-rule:nonzero;stroke:none"
       id="text50"><tspan
         x="0"
         y="0"
         id="tspan48">D</tspan></text><text
       transform="matrix(1,0,0,-1,2020.8789,897.3408)"
       style="font-variant:normal;font-weight:normal;font-stretch:normal;font-size:305.859px;font-family:Cocogoose;-inkscape-font-specification:Cocogoose;writing-mode:lr-tb;fill:#fbbc05;fill-opacity:1;fill-rule:nonzero;stroke:none"
       id="text54"><tspan
         x="0 216.54839"
         y="0"
         sodipodi:role="line"
         id="tspan52">es</tspan></text></g></svg>
